<?xml version="1.0" encoding="us-ascii" standalone="no"?><svg xmlns="http://www.w3.org/2000/svg" xmlns:xlink="http://www.w3.org/1999/xlink" contentStyleType="text/css" height="920.8333px" preserveAspectRatio="none" style="width:1237px;height:920px;" version="1.1" viewBox="0 0 1237 920" width="1237.5px" zoomAndPan="magnify"><defs/><g><rect fill="#003153" height="250.411" style="stroke:#D9D3D0;stroke-width:2.0833333333333335;" width="20.8333" x="138.5417" y="577.5177"/><rect fill="#003153" height="729.9815" style="stroke:#D9D3D0;stroke-width:2.0833333333333335;" width="20.8333" x="396.875" y="97.9472"/><rect fill="#003153" height="202.4943" style="stroke:#D9D3D0;stroke-width:2.0833333333333335;" width="20.8333" x="792.7083" y="375.0234"/><line style="stroke:#D9D3D0;stroke-width:2.0833333333333335;" x1="147.9167" x2="147.9167" y1="77.1139" y2="846.6787"/><line style="stroke:#D9D3D0;stroke-width:2.0833333333333335;" x1="406.25" x2="406.25" y1="77.1139" y2="846.6787"/><line style="stroke:#D9D3D0;stroke-width:2.0833333333333335;" x1="802.0833" x2="802.0833" y1="77.1139" y2="846.6787"/><rect fill="#003153" height="64.6139" rx="5.2083" ry="5.2083" style="stroke:#D9D3D0;stroke-width:2.0833333333333335;" width="214.5833" x="41.6667" y="10.4167"/><text fill="#D9D3D0" font-family="Verdana" font-size="29.1667" lengthAdjust="spacing" textLength="185.4167" x="56.25" y="54.3233">Some device</text><rect fill="#003153" height="64.6139" rx="5.2083" ry="5.2083" style="stroke:#D9D3D0;stroke-width:2.0833333333333335;" width="214.5833" x="41.6667" y="844.5953"/><text fill="#D9D3D0" font-family="Verdana" font-size="29.1667" lengthAdjust="spacing" textLength="185.4167" x="56.25" y="888.502">Some device</text><rect fill="#003153" height="64.6139" rx="5.2083" ry="5.2083" style="stroke:#D9D3D0;stroke-width:2.0833333333333335;" width="177.0833" x="318.75" y="10.4167"/><text fill="#D9D3D0" font-family="Verdana" font-size="29.1667" lengthAdjust="spacing" textLength="147.9167" x="333.3333" y="54.3233">Syncthing</text><rect fill="#003153" height="64.6139" rx="5.2083" ry="5.2083" style="stroke:#D9D3D0;stroke-width:2.0833333333333335;" width="177.0833" x="318.75" y="844.5953"/><text fill="#D9D3D0" font-family="Verdana" font-size="29.1667" lengthAdjust="spacing" textLength="147.9167" x="333.3333" y="888.502">Syncthing</text><rect fill="#003153" height="64.6139" rx="5.2083" ry="5.2083" style="stroke:#D9D3D0;stroke-width:2.0833333333333335;" width="206.25" x="700" y="10.4167"/><text fill="#D9D3D0" font-family="Verdana" font-size="29.1667" lengthAdjust="spacing" textLength="177.0833" x="714.5833" y="54.3233">autoacceptd</text><rect fill="#003153" height="64.6139" rx="5.2083" ry="5.2083" style="stroke:#D9D3D0;stroke-width:2.0833333333333335;" width="206.25" x="700" y="844.5953"/><text fill="#D9D3D0" font-family="Verdana" font-size="29.1667" lengthAdjust="spacing" textLength="177.0833" x="714.5833" y="888.502">autoacceptd</text><rect fill="#003153" height="250.411" style="stroke:#D9D3D0;stroke-width:2.0833333333333335;" width="20.8333" x="138.5417" y="577.5177"/><rect fill="#003153" height="729.9815" style="stroke:#D9D3D0;stroke-width:2.0833333333333335;" width="20.8333" x="396.875" y="97.9472"/><rect fill="#003153" height="202.4943" style="stroke:#D9D3D0;stroke-width:2.0833333333333335;" width="20.8333" x="792.7083" y="375.0234"/><polygon fill="#D9D3D0" points="371.875,135.0291,392.7083,143.3624,371.875,151.6958,380.2083,143.3624" style="stroke:#D9D3D0;stroke-width:2.0833333333333335;"/><line style="stroke:#D9D3D0;stroke-width:2.0833333333333335;" x1="148.9583" x2="384.375" y1="143.3624" y2="143.3624"/><text fill="#D9D3D0" font-family="Verdana" font-size="27.0833" lengthAdjust="spacing" textLength="110.4167" x="163.5417" y="133.5093">Connect</text><path d="M270.8333,170.4458 L270.8333,255.8624 L541.6667,255.8624 L541.6667,191.2791 L520.8333,170.4458 L270.8333,170.4458 " fill="#003153" style="stroke:#D9D3D0;stroke-width:2.0833333333333335;"/><path d="M520.8333,170.4458 L520.8333,191.2791 L541.6667,191.2791 L520.8333,170.4458 " fill="#003153" style="stroke:#D9D3D0;stroke-width:2.0833333333333335;"/><text fill="#D9D3D0" font-family="Verdana" font-size="27.0833" lengthAdjust="spacing" textLength="227.0833" x="283.3333" y="208.0912">Unknown device</text><text fill="#D9D3D0" font-family="Verdana" font-size="27.0833" lengthAdjust="spacing" textLength="145.8333" x="283.3333" y="241.0065">is rejected</text><polygon fill="#D9D3D0" points="171.875,304.6082,151.0417,312.9415,171.875,321.2748,163.5417,312.9415" style="stroke:#D9D3D0;stroke-width:2.0833333333333335;"/><line style="stroke:#D9D3D0;stroke-width:2.0833333333333335;stroke-dasharray:2.0,2.0;" x1="159.375" x2="394.7917" y1="312.9415" y2="312.9415"/><text fill="#D9D3D0" font-family="Verdana" font-size="27.0833" lengthAdjust="spacing" textLength="118.75" x="184.375" y="303.0884">Rejected</text><polygon fill="#D9D3D0" points="767.7083,366.6901,788.5417,375.0234,767.7083,383.3567,776.0417,375.0234" style="stroke:#D9D3D0;stroke-width:2.0833333333333335;"/><line style="stroke:#D9D3D0;stroke-width:2.0833333333333335;" x1="417.7083" x2="780.2083" y1="375.0234" y2="375.0234"/><text fill="#D9D3D0" font-family="Verdana" font-size="27.0833" lengthAdjust="spacing" textLength="335.4167" x="432.2917" y="365.1703">"Device Rejected" event</text><polygon fill="#D9D3D0" points="440.625,467.9372,419.7917,476.2705,440.625,484.6039,432.2917,476.2705" style="stroke:#D9D3D0;stroke-width:2.0833333333333335;"/><line style="stroke:#D9D3D0;stroke-width:2.0833333333333335;" x1="428.125" x2="790.625" y1="476.2705" y2="476.2705"/><text fill="#D9D3D0" font-family="Verdana" font-size="27.0833" lengthAdjust="spacing" textLength="152.0833" x="453.125" y="466.4174">Add device</text><path d="M822.9167,402.1067 L822.9167,520.8567 L1222.9167,520.8567 L1222.9167,422.9401 L1202.0833,402.1067 L822.9167,402.1067 " fill="#003153" style="stroke:#D9D3D0;stroke-width:2.0833333333333335;"/><path d="M1202.0833,402.1067 L1202.0833,422.9401 L1222.9167,422.9401 L1202.0833,402.1067 " fill="#003153" style="stroke:#D9D3D0;stroke-width:2.0833333333333335;"/><text fill="#D9D3D0" font-family="Verdana" font-size="27.0833" lengthAdjust="spacing" textLength="356.25" x="835.4167" y="439.7522">Autoacceptd applies rules</text><text fill="#D9D3D0" font-family="Verdana" font-size="27.0833" lengthAdjust="spacing" textLength="310.4167" x="835.4167" y="472.6674">and patterns based on</text><text fill="#D9D3D0" font-family="Verdana" font-size="27.0833" lengthAdjust="spacing" textLength="210.4167" x="835.4167" y="505.5827">source address</text><polygon fill="#D9D3D0" points="440.625,569.1844,419.7917,577.5177,440.625,585.851,432.2917,577.5177" style="stroke:#D9D3D0;stroke-width:2.0833333333333335;"/><line style="stroke:#D9D3D0;stroke-width:2.0833333333333335;" x1="428.125" x2="801.0417" y1="577.5177" y2="577.5177"/><text fill="#D9D3D0" font-family="Verdana" font-size="27.0833" lengthAdjust="spacing" textLength="158.3333" x="453.125" y="567.6646">Add folders</text><polygon fill="#D9D3D0" points="371.875,631.2663,392.7083,639.5996,371.875,647.9329,380.2083,639.5996" style="stroke:#D9D3D0;stroke-width:2.0833333333333335;"/><line style="stroke:#D9D3D0;stroke-width:2.0833333333333335;" x1="159.375" x2="384.375" y1="639.5996" y2="639.5996"/><text fill="#D9D3D0" font-family="Verdana" font-size="27.0833" lengthAdjust="spacing" textLength="110.4167" x="173.9583" y="629.7465">Connect</text><path d="M289.5833,666.6829 L289.5833,752.0996 L525,752.0996 L525,687.5163 L504.1667,666.6829 L289.5833,666.6829 " fill="#003153" style="stroke:#D9D3D0;stroke-width:2.0833333333333335;"/><path d="M504.1667,666.6829 L504.1667,687.5163 L525,687.5163 L504.1667,666.6829 " fill="#003153" style="stroke:#D9D3D0;stroke-width:2.0833333333333335;"/><text fill="#D9D3D0" font-family="Verdana" font-size="27.0833" lengthAdjust="spacing" textLength="191.6667" x="302.0833" y="704.3284">Known device</text><text fill="#D9D3D0" font-family="Verdana" font-size="27.0833" lengthAdjust="spacing" textLength="156.25" x="302.0833" y="737.2437">is accepted</text><polygon fill="#D9D3D0" points="182.2917,800.8453,161.4583,809.1787,182.2917,817.512,173.9583,809.1787" style="stroke:#D9D3D0;stroke-width:2.0833333333333335;"/><line style="stroke:#D9D3D0;stroke-width:2.0833333333333335;" x1="169.7917" x2="394.7917" y1="809.1787" y2="809.1787"/><text fill="#D9D3D0" font-family="Verdana" font-size="27.0833" lengthAdjust="spacing" textLength="125" x="194.7917" y="799.3256">Accepted</text><!--SRC=[fLAnJWCn3DtlAymjJ4Z0o81KoiQ2gFY0D35jwDM97Dy1Vu-JkrvJKLZ84kNPVdxFpeLiSO-mxdgCx4cQjFCK3PizF8JFP-ESfmtSN5UuYnvkhsjaRUnkmw4dPqCN68GD9GsXyZLwYxS-6X9eLq6REHoynHPCWcNdSrATi_eYAzlSLUChv07vbCFq4eor6CKLZiNntJINC8R53qOG0ZKDw9c1YJ1ZOs-ukfz0k8Db848h9KmXrsUygiddbNOKFcYoCSC-0UExLgCh698h7EN1A3qJl1mI2ZYrLG6L1LNHFXRcERi57FAKJepKhdEWfgWjBPohbHPNx3TRcONNbIP6dOewwJjCSuPHAz6885FIPITqUR27Q0ezgrhzAemf_VJ-bxAtq3daiSZXMNEdjgSFyv_zFVsolR7XkUqT5pNrLF67v6y0]--></g></svg>