<?xml version="1.0" encoding="us-ascii" standalone="no"?><svg xmlns="http://www.w3.org/2000/svg" xmlns:xlink="http://www.w3.org/1999/xlink" contentStyleType="text/css" height="920.8333px" preserveAspectRatio="none" style="width:1247px;height:920px;" version="1.1" viewBox="0 0 1247 920" width="1247.9167px" zoomAndPan="magnify"><defs/><g><rect fill="#003153" height="250.411" style="stroke:#D9D3D0;stroke-width:2.0833333333333335;" width="20.8333" x="166.6667" y="577.5177"/><rect fill="#003153" height="729.9815" style="stroke:#D9D3D0;stroke-width:2.0833333333333335;" width="20.8333" x="453.125" y="97.9472"/><rect fill="#003153" height="202.4943" style="stroke:#D9D3D0;stroke-width:2.0833333333333335;" width="20.8333" x="848.9583" y="375.0234"/><line style="stroke:#D9D3D0;stroke-width:2.0833333333333335;" x1="177.0833" x2="177.0833" y1="77.1139" y2="846.6787"/><line style="stroke:#D9D3D0;stroke-width:2.0833333333333335;" x1="462.5" x2="462.5" y1="77.1139" y2="846.6787"/><line style="stroke:#D9D3D0;stroke-width:2.0833333333333335;" x1="859.375" x2="859.375" y1="77.1139" y2="846.6787"/><rect fill="#404040" height="64.6139" rx="5.2083" ry="5.2083" style="stroke:#D9D3D0;stroke-width:2.0833333333333335;" width="270.8333" x="41.6667" y="10.4167"/><text fill="#FFFFFF" font-family="Verdana" font-size="29.1667" lengthAdjust="spacing" textLength="241.6667" x="56.25" y="54.3233">Other Syncthing</text><rect fill="#404040" height="64.6139" rx="5.2083" ry="5.2083" style="stroke:#D9D3D0;stroke-width:2.0833333333333335;" width="270.8333" x="41.6667" y="844.5953"/><text fill="#FFFFFF" font-family="Verdana" font-size="29.1667" lengthAdjust="spacing" textLength="241.6667" x="56.25" y="888.502">Other Syncthing</text><rect fill="#3F51B5" height="64.6139" rx="5.2083" ry="5.2083" style="stroke:#D9D3D0;stroke-width:2.0833333333333335;" width="177.0833" x="375" y="10.4167"/><text fill="#FFFFFF" font-family="Verdana" font-size="29.1667" lengthAdjust="spacing" textLength="147.9167" x="389.5833" y="54.3233">Syncthing</text><rect fill="#3F51B5" height="64.6139" rx="5.2083" ry="5.2083" style="stroke:#D9D3D0;stroke-width:2.0833333333333335;" width="177.0833" x="375" y="844.5953"/><text fill="#FFFFFF" font-family="Verdana" font-size="29.1667" lengthAdjust="spacing" textLength="147.9167" x="389.5833" y="888.502">Syncthing</text><rect fill="#F44336" height="64.6139" rx="5.2083" ry="5.2083" style="stroke:#D9D3D0;stroke-width:2.0833333333333335;" width="300" x="709.375" y="10.4167"/><text fill="#FFFFFF" font-family="Verdana" font-size="29.1667" lengthAdjust="spacing" textLength="270.8333" x="723.9583" y="54.3233">Syncthing Configd</text><rect fill="#F44336" height="64.6139" rx="5.2083" ry="5.2083" style="stroke:#D9D3D0;stroke-width:2.0833333333333335;" width="300" x="709.375" y="844.5953"/><text fill="#FFFFFF" font-family="Verdana" font-size="29.1667" lengthAdjust="spacing" textLength="270.8333" x="723.9583" y="888.502">Syncthing Configd</text><rect fill="#003153" height="250.411" style="stroke:#D9D3D0;stroke-width:2.0833333333333335;" width="20.8333" x="166.6667" y="577.5177"/><rect fill="#003153" height="729.9815" style="stroke:#D9D3D0;stroke-width:2.0833333333333335;" width="20.8333" x="453.125" y="97.9472"/><rect fill="#003153" height="202.4943" style="stroke:#D9D3D0;stroke-width:2.0833333333333335;" width="20.8333" x="848.9583" y="375.0234"/><polygon fill="#FFFFFF" points="428.125,135.0291,448.9583,143.3624,428.125,151.6958,436.4583,143.3624" style="stroke:#FFFFFF;stroke-width:2.0833333333333335;"/><line style="stroke:#FFFFFF;stroke-width:2.0833333333333335;" x1="177.0833" x2="440.625" y1="143.3624" y2="143.3624"/><text fill="#FFFFFF" font-family="Verdana" font-size="27.0833" lengthAdjust="spacing" textLength="110.4167" x="191.6667" y="133.5093">Connect</text><path d="M327.0833,170.4458 L327.0833,255.8624 L597.9167,255.8624 L597.9167,191.2791 L577.0833,170.4458 L327.0833,170.4458 " fill="#404040" style="stroke:#D9D3D0;stroke-width:2.0833333333333335;"/><path d="M577.0833,170.4458 L577.0833,191.2791 L597.9167,191.2791 L577.0833,170.4458 " fill="#404040" style="stroke:#D9D3D0;stroke-width:2.0833333333333335;"/><text fill="#FFFFFF" font-family="Verdana" font-size="27.0833" lengthAdjust="spacing" textLength="227.0833" x="339.5833" y="208.0912">Unknown device</text><text fill="#FFFFFF" font-family="Verdana" font-size="27.0833" lengthAdjust="spacing" textLength="145.8333" x="339.5833" y="241.0065">is rejected</text><polygon fill="#FFFFFF" points="200,304.6082,179.1667,312.9415,200,321.2748,191.6667,312.9415" style="stroke:#FFFFFF;stroke-width:2.0833333333333335;"/><line style="stroke:#FFFFFF;stroke-width:2.0833333333333335;stroke-dasharray:2.0,2.0;" x1="187.5" x2="451.0417" y1="312.9415" y2="312.9415"/><text fill="#FFFFFF" font-family="Verdana" font-size="27.0833" lengthAdjust="spacing" textLength="118.75" x="212.5" y="303.0884">Rejected</text><polygon fill="#FFFFFF" points="823.9583,366.6901,844.7917,375.0234,823.9583,383.3567,832.2917,375.0234" style="stroke:#FFFFFF;stroke-width:2.0833333333333335;"/><line style="stroke:#FFFFFF;stroke-width:2.0833333333333335;" x1="473.9583" x2="836.4583" y1="375.0234" y2="375.0234"/><text fill="#FFFFFF" font-family="Verdana" font-size="27.0833" lengthAdjust="spacing" textLength="335.4167" x="488.5417" y="365.1703">"Device Rejected" event</text><polygon fill="#FFFFFF" points="496.875,467.9372,476.0417,476.2705,496.875,484.6039,488.5417,476.2705" style="stroke:#FFFFFF;stroke-width:2.0833333333333335;"/><line style="stroke:#FFFFFF;stroke-width:2.0833333333333335;" x1="484.375" x2="846.875" y1="476.2705" y2="476.2705"/><text fill="#FFFFFF" font-family="Verdana" font-size="27.0833" lengthAdjust="spacing" textLength="152.0833" x="509.375" y="466.4174">Add device</text><path d="M879.1667,402.1067 L879.1667,520.8567 L1233.3333,520.8567 L1233.3333,422.9401 L1212.5,402.1067 L879.1667,402.1067 " fill="#404040" style="stroke:#D9D3D0;stroke-width:2.0833333333333335;"/><path d="M1212.5,402.1067 L1212.5,422.9401 L1233.3333,422.9401 L1212.5,402.1067 " fill="#404040" style="stroke:#D9D3D0;stroke-width:2.0833333333333335;"/><text fill="#FFFFFF" font-family="Verdana" font-size="27.0833" lengthAdjust="spacing" textLength="287.5" x="891.6667" y="439.7522">configd applies rules</text><text fill="#FFFFFF" font-family="Verdana" font-size="27.0833" lengthAdjust="spacing" textLength="310.4167" x="891.6667" y="472.6674">and patterns based on</text><text fill="#FFFFFF" font-family="Verdana" font-size="27.0833" lengthAdjust="spacing" textLength="210.4167" x="891.6667" y="505.5827">source address</text><polygon fill="#FFFFFF" points="496.875,569.1844,476.0417,577.5177,496.875,585.851,488.5417,577.5177" style="stroke:#FFFFFF;stroke-width:2.0833333333333335;"/><line style="stroke:#FFFFFF;stroke-width:2.0833333333333335;" x1="484.375" x2="857.2917" y1="577.5177" y2="577.5177"/><text fill="#FFFFFF" font-family="Verdana" font-size="27.0833" lengthAdjust="spacing" textLength="158.3333" x="509.375" y="567.6646">Add folders</text><polygon fill="#FFFFFF" points="428.125,631.2663,448.9583,639.5996,428.125,647.9329,436.4583,639.5996" style="stroke:#FFFFFF;stroke-width:2.0833333333333335;"/><line style="stroke:#FFFFFF;stroke-width:2.0833333333333335;" x1="187.5" x2="440.625" y1="639.5996" y2="639.5996"/><text fill="#FFFFFF" font-family="Verdana" font-size="27.0833" lengthAdjust="spacing" textLength="110.4167" x="202.0833" y="629.7465">Connect</text><path d="M345.8333,666.6829 L345.8333,752.0996 L581.25,752.0996 L581.25,687.5163 L560.4167,666.6829 L345.8333,666.6829 " fill="#404040" style="stroke:#D9D3D0;stroke-width:2.0833333333333335;"/><path d="M560.4167,666.6829 L560.4167,687.5163 L581.25,687.5163 L560.4167,666.6829 " fill="#404040" style="stroke:#D9D3D0;stroke-width:2.0833333333333335;"/><text fill="#FFFFFF" font-family="Verdana" font-size="27.0833" lengthAdjust="spacing" textLength="191.6667" x="358.3333" y="704.3284">Known device</text><text fill="#FFFFFF" font-family="Verdana" font-size="27.0833" lengthAdjust="spacing" textLength="156.25" x="358.3333" y="737.2437">is accepted</text><polygon fill="#FFFFFF" points="210.4167,800.8453,189.5833,809.1787,210.4167,817.512,202.0833,809.1787" style="stroke:#FFFFFF;stroke-width:2.0833333333333335;"/><line style="stroke:#FFFFFF;stroke-width:2.0833333333333335;" x1="197.9167" x2="451.0417" y1="809.1787" y2="809.1787"/><text fill="#FFFFFF" font-family="Verdana" font-size="27.0833" lengthAdjust="spacing" textLength="125" x="222.9167" y="799.3256">Accepted</text><!--SRC=[bPB1Ri8m38RlUGgld2V1W1quJ0AcNNRODBG728c1ZE94Jbg6fhtxqj3IeWsXjL9LsR-__FxRcx317S8oBz2neI3yrf2JB7Smiv-lKcj3QnZqEtNj3DprkvMbLDirsuAqihbb22p9nnQUyU8p66MSf01V0gfhTXgSfy7Ug5_Tn-QJfL2NL-aItnqQsO0DvXhfAaogO4eJ3ZLmocptNNLR_SsvH1VTVRENc3F3ua0gR6AY6KWFyznK2NLr9q7LNo2NSQWtN8q7o_4vhnNEBQtCMYUYEhv75wFHS7WlH5fCngIEB74y4cuV6lYacYTKGQH0RLMhjTLYxxGbkoVGM1g5gMGyC7x42TG2IQSF8HX3mGHlJKFK-7XGusa2sMEYd5GPO5a5S39PIqKpqhKvrRfnaPooMMz2CjIefNDnk-YkoD6dZepsd0m1cNpyIJrgi9GwtXOSdSJVcz7xTezB9wzihf6zqFZBR6k__fx_pVZvZuIbKkZE4cu3hVdHM2Fw0G00]--></g></svg>